<?xml version="1.0" encoding="UTF-8" standalone="no"?>
<svg
   version="1.0"
   width="444.000000pt"
   height="474.000000pt"
   viewBox="0 0 444.000000 474.000000"
   preserveAspectRatio="xMidYMid meet"
   id="svg7"
   sodipodi:docname="favicon.svg"
   inkscape:version="1.3.2 (091e20ef0f, 2023-11-25)"
   xmlns:inkscape="http://www.inkscape.org/namespaces/inkscape"
   xmlns:sodipodi="http://sodipodi.sourceforge.net/DTD/sodipodi-0.dtd"
   xmlns="http://www.w3.org/2000/svg"
   xmlns:svg="http://www.w3.org/2000/svg">
  <defs
     id="defs7">
    <inkscape:path-effect
       effect="fillet_chamfer"
       id="path-effect10"
       is_visible="true"
       lpeversion="1"
       nodesatellites_param="F,0,0,1,0,100,0,1 @ F,0,0,1,0,100,0,1 @ F,0,0,1,0,100,0,1 @ F,0,0,1,0,100,0,1"
       radius="0"
       unit="px"
       method="auto"
       mode="F"
       chamfer_steps="1"
       flexible="false"
       use_knot_distance="true"
       apply_no_radius="true"
       apply_with_radius="true"
       only_selected="false"
       hide_knots="false" />
    <inkscape:path-effect
       effect="fillet_chamfer"
       id="path-effect9"
       is_visible="true"
       lpeversion="1"
       nodesatellites_param="F,0,0,1,0,0,0,1 @ F,0,0,1,0,0,0,1 @ F,0,0,1,0,0,0,1 @ F,0,0,1,0,0,0,1"
       radius="0"
       unit="px"
       method="auto"
       mode="F"
       chamfer_steps="1"
       flexible="false"
       use_knot_distance="true"
       apply_no_radius="true"
       apply_with_radius="true"
       only_selected="false"
       hide_knots="false" />
  </defs>
  <sodipodi:namedview
     id="namedview7"
     pagecolor="#ffffff"
     bordercolor="#000000"
     borderopacity="0.25"
     inkscape:showpageshadow="2"
     inkscape:pageopacity="0.0"
     inkscape:pagecheckerboard="0"
     inkscape:deskcolor="#d1d1d1"
     inkscape:document-units="pt"
     inkscape:zoom="2.1067754"
     inkscape:cx="196.9835"
     inkscape:cy="360.50354"
     inkscape:window-width="3840"
     inkscape:window-height="2091"
     inkscape:window-x="0"
     inkscape:window-y="0"
     inkscape:window-maximized="1"
     inkscape:current-layer="svg7" />
  <path
     style="fill:#047857;fill-opacity:1;stroke-width:0.773028"
     id="rect9"
     width="445.12775"
     height="474.40131"
     x="-0.10429502"
     y="0.076483108"
     ry="0"
     sodipodi:type="rect"
     inkscape:path-effect="#path-effect10"
     d="M 99.895705,0.07648311 H 345.02345 a 100,100 45 0 1 100,99.99999689 v 274.40131 a 100,100 135 0 1 -100,100 H 99.895705 a 100,100 45 0 1 -100.00000002,-100 V 100.07648 A 100,100 135 0 1 99.895705,0.07648311 Z" />
  <g
     transform="matrix(0.08455928,0,0,-0.08455928,36.993219,428.94409)"
     fill="#000000"
     stroke="none"
     id="g7"
     style="fill:#ffffff">
    <path
       d="m 2040,4554 c -54,-14 -204,-83 -197,-91 2,-2 44,6 93,18 121,29 313,36 413,15 41,-9 77,-14 79,-12 7,7 -89,53 -147,70 -66,19 -167,20 -241,0 z"
       id="path1"
       style="fill:#ffffff;fill-opacity:1" />
    <path
       d="m 2034,4455 c -111,-21 -260,-62 -363,-102 -74,-28 -97,-42 -112,-67 -10,-17 -19,-34 -19,-37 0,-4 47,11 104,32 272,100 568,147 773,121 52,-7 102,-16 110,-20 7,-5 -66,-8 -164,-8 -147,1 -198,-3 -290,-22 -122,-25 -394,-114 -512,-168 -41,-19 -75,-34 -77,-34 -6,0 28,105 37,115 26,26 2,33 -29,8 -11,-10 -28,-22 -36,-28 -11,-7 -20,-35 -26,-85 -11,-87 -26,-750 -17,-750 3,0 35,16 69,35 92,50 248,118 578,252 242,98 483,174 630,198 181,29 510,13 643,-31 27,-9 46,-18 44,-20 -2,-3 -46,2 -98,11 -213,34 -452,14 -705,-59 -320,-94 -1038,-377 -1181,-466 -12,-8 -24,-12 -26,-10 -8,9 12,786 22,835 5,28 7,52 4,55 -10,11 -57,-28 -66,-55 -5,-16 -11,-248 -14,-515 -3,-302 -9,-490 -15,-497 -6,-7 -17,-13 -26,-13 -13,0 -14,50 -8,453 4,248 10,478 14,510 9,61 3,68 -34,42 -30,-21 -34,-75 -35,-587 0,-385 -2,-450 -15,-463 -37,-36 -41,-21 -38,128 9,341 11,877 4,877 -4,0 -17,-8 -29,-17 -20,-18 -21,-26 -27,-533 l -6,-515 -28,-18 -27,-17 3,67 c 2,38 6,259 9,493 3,234 8,437 11,453 7,32 -13,37 -39,10 -23,-26 -26,-90 -32,-598 l -4,-460 -23,-19 -23,-18 -3,133 c -1,74 1,310 6,524 5,215 8,391 6,393 -5,8 -42,-19 -50,-35 -5,-10 -10,-250 -12,-534 l -3,-516 -30,-29 -31,-29 6,420 c 4,231 9,475 12,543 l 6,123 -30,-15 c -27,-14 -30,-21 -35,-83 -4,-37 -7,-285 -7,-550 v -482 l -28,-20 -29,-20 3,217 c 2,119 5,369 7,554 l 4,337 -22,-15 c -13,-8 -26,-29 -29,-47 -4,-18 -10,-273 -13,-567 l -7,-535 -45,-40 c -39,-35 -42,-36 -23,-10 21,29 21,39 26,550 2,286 8,537 11,558 8,40 -3,48 -28,22 -33,-32 -38,-116 -44,-650 l -5,-530 -25,-25 -25,-25 6,540 c 4,297 10,563 15,590 5,28 7,51 6,53 -9,9 -47,-22 -57,-46 -16,-41 -27,-370 -27,-818 l -1,-401 -25,-23 -25,-23 v 429 c 1,419 12,772 25,807 12,30 -13,19 -42,-20 l -28,-36 -6,-626 c -4,-498 -8,-632 -19,-653 -31,-63 -35,-33 -33,224 10,936 9,1019 -8,996 -44,-58 -43,-46 -47,-1058 -2,-829 0,-978 13,-1054 27,-158 57,-190 319,-340 159,-91 224,-126 235,-126 6,0 20,-9 31,-20 27,-27 59,-25 209,9 69,16 160,32 201,35 l 75,5 -87,-14 c -48,-8 -120,-23 -161,-34 -41,-11 -96,-23 -121,-26 -46,-7 -58,-18 -32,-28 7,-3 135,0 284,6 296,12 313,10 532,-42 161,-38 202,-54 397,-162 89,-49 165,-89 168,-89 4,0 39,-20 78,-44 106,-64 213,-116 239,-116 31,0 56,17 43,28 -13,13 -426,246 -590,333 -81,43 -221,87 -315,98 l -65,8 51,2 c 106,2 250,-39 379,-108 38,-21 142,-78 230,-126 296,-162 346,-186 373,-183 15,2 27,9 27,17 0,7 -56,46 -125,85 -106,61 -158,90 -299,166 -385,209 -370,205 -766,198 -295,-5 -268,5 45,17 120,5 219,4 280,-4 88,-10 107,-17 260,-92 91,-44 253,-129 360,-189 267,-148 284,-156 317,-144 15,5 26,14 26,19 0,6 -47,36 -104,68 -186,104 -402,220 -483,260 -76,37 -100,63 -34,37 56,-22 288,-140 383,-194 49,-29 135,-74 189,-100 87,-41 103,-46 124,-36 22,9 23,13 11,25 -20,18 -340,196 -479,265 -129,64 -146,71 -247,100 -40,11 -73,23 -73,26 0,4 8,3 18,-1 9,-3 42,-11 72,-16 96,-18 241,-81 410,-179 36,-21 130,-70 209,-110 128,-65 146,-71 169,-61 35,17 26,24 -168,129 -91,49 -201,109 -245,134 -110,62 -229,113 -298,128 -31,6 -57,16 -57,21 0,16 33,10 124,-21 86,-29 127,-49 481,-239 94,-50 184,-94 202,-97 32,-6 73,2 73,14 0,4 -30,23 -67,41 -38,19 -165,87 -283,151 -365,199 -444,224 -771,239 l -164,8 125,1 c 174,2 317,-13 423,-43 102,-30 117,-37 392,-186 244,-132 363,-184 400,-175 53,13 28,31 -200,139 -55,26 -151,76 -214,111 -137,78 -311,149 -406,166 -89,15 -130,33 -60,24 148,-17 284,-67 510,-190 231,-125 372,-187 429,-188 27,-1 50,4 52,9 2,6 -113,66 -254,134 -175,85 -268,136 -292,159 l -35,35 51,-36 c 28,-20 53,-35 56,-32 2,2 91,-38 196,-90 188,-93 304,-145 319,-145 4,0 19,9 33,20 l 25,19 -35,12 c -74,26 -369,180 -445,233 -159,111 -216,146 -277,171 -89,36 -167,55 -174,43 -3,-5 -15,-7 -26,-5 -11,3 -18,1 -15,-6 2,-6 34,-17 72,-25 38,-7 92,-24 120,-37 57,-27 295,-181 295,-191 0,-9 -103,50 -189,108 -41,28 -98,62 -128,75 -59,27 -208,57 -227,46 -12,-8 -17,-9 -55,-11 -44,-3 -15,-12 55,-17 117,-9 267,-59 290,-96 3,-6 -13,0 -37,14 -65,38 -200,67 -314,68 -57,0 -102,-4 -108,-10 -15,-15 -50,-14 -45,1 3,7 22,16 44,20 21,5 48,12 59,18 16,7 56,19 115,35 3,1 22,9 44,18 21,9 44,17 50,17 7,0 16,4 21,8 6,5 21,13 35,19 21,9 30,7 49,-9 l 24,-19 -41,7 c -64,10 -51,-10 21,-34 104,-34 167,-66 250,-125 158,-115 400,-244 537,-288 57,-19 74,-21 95,-11 38,17 31,28 -32,52 -105,39 -269,140 -438,270 -68,52 -111,78 -242,144 -51,26 -93,51 -93,57 0,5 11,14 24,19 13,5 26,14 28,21 3,8 11,-1 20,-19 16,-30 16,-31 -2,-22 -25,14 -40,13 -40,-2 0,-7 46,-35 103,-61 56,-26 140,-74 187,-107 315,-219 378,-255 497,-285 47,-12 68,-13 83,-5 31,17 25,25 -40,54 -86,37 -160,89 -317,226 -222,192 -253,222 -266,260 -16,47 -31,53 -35,13 -4,-44 16,-71 123,-162 130,-112 150,-131 134,-131 -17,0 74,-75 178,-148 10,-7 2,-5 -17,4 -59,28 -197,142 -180,148 3,1 -44,44 -105,96 -89,77 -115,106 -138,152 -26,54 -27,58 -10,77 9,11 21,17 26,14 6,-3 16,3 24,13 13,17 14,16 8,-17 -4,-24 -2,-46 7,-63 22,-41 368,-341 472,-408 64,-41 154,-78 190,-78 28,0 56,27 35,34 -8,2 -39,12 -69,21 -109,34 -187,86 -410,273 -143,121 -205,180 -196,189 3,4 22,-12 41,-35 20,-22 52,-51 73,-63 20,-13 77,-59 127,-102 193,-170 305,-241 402,-253 49,-6 51,-5 46,15 -4,16 -22,26 -72,41 -73,21 -152,68 -265,157 -138,108 -284,265 -274,295 3,7 16,-6 31,-27 47,-69 178,-194 299,-286 136,-102 153,-112 231,-132 57,-15 57,-15 57,8 0,19 -9,25 -57,40 -75,22 -263,147 -363,242 -84,79 -167,180 -156,190 3,4 14,-3 22,-16 45,-63 133,-157 192,-205 166,-131 333,-229 363,-211 22,14 3,32 -66,64 -44,20 -99,56 -134,88 -58,52 -219,232 -274,305 -31,42 -40,83 -17,83 10,0 15,-10 14,-29 0,-17 7,-37 15,-46 9,-9 55,-62 103,-117 128,-146 234,-244 302,-276 43,-22 61,-26 66,-17 17,28 10,210 -14,370 -14,91 -26,213 -27,273 -1,59 -5,109 -9,112 -4,2 -17,-7 -30,-20 -22,-23 -23,-29 -16,-122 4,-53 9,-109 12,-123 5,-23 4,-23 -26,10 -30,35 -31,36 -25,114 l 7,80 -24,-16 c -16,-11 -24,-28 -28,-58 -4,-35 -7,-40 -16,-29 -7,8 -13,22 -15,32 -3,16 -9,14 -41,-17 -21,-21 -38,-40 -38,-44 0,-4 34,-45 76,-92 107,-117 227,-307 159,-250 -9,7 -35,45 -58,84 -22,39 -72,105 -109,147 -37,42 -68,82 -68,88 0,6 -4,11 -9,11 -5,0 -11,9 -14,21 -4,16 5,27 41,52 158,109 379,308 499,450 18,20 35,37 38,37 3,0 4,-259 3,-575 -2,-316 0,-575 3,-575 3,0 14,9 25,21 18,20 19,47 22,623 3,577 3,602 22,626 19,25 20,21 21,-585 l 1,-610 21,45 22,45 3,964 c 2,630 -1,983 -8,1020 -17,90 -60,171 -122,225 -30,27 -143,99 -251,162 -221,127 -371,215 -757,444 -419,248 -442,260 -513,271 -88,12 -309,9 -393,-6 z m 537,-162 74,-18 -150,-6 c -159,-7 -163,-7 -295,-46 -110,-33 -275,-107 -630,-281 -52,-26 -98,-49 -103,-51 -5,-2 -7,12 -5,30 3,33 4,34 243,146 132,62 287,132 345,157 186,79 372,104 521,69 z m -631,-49 c 0,-5 -97,-52 -354,-173 -60,-28 -110,-51 -112,-51 -7,0 -4,45 4,56 13,20 94,56 262,115 155,55 200,67 200,53 z m 794,-49 c 39,-8 73,-18 77,-22 5,-5 -67,-8 -159,-9 -295,-1 -447,-49 -1046,-333 -70,-34 -132,-61 -137,-61 -5,0 -9,14 -9,30 0,30 5,33 158,106 402,193 606,273 747,294 90,13 296,10 369,-5 z m 221,-110 c 78,-21 96,-38 30,-28 -28,5 -124,8 -215,8 -190,-1 -273,-14 -464,-75 -158,-51 -561,-222 -768,-326 -37,-19 -70,-34 -73,-34 -3,0 -5,17 -5,38 v 37 l 163,74 c 566,258 658,292 882,325 73,11 391,-2 450,-19 z m 183,-109 c 46,-15 82,-30 79,-32 -2,-3 -33,0 -68,5 -275,44 -531,13 -864,-105 -137,-48 -565,-225 -704,-290 -63,-30 -118,-54 -123,-54 -5,0 -8,15 -6,33 3,36 26,50 248,148 495,219 654,276 910,323 14,2 120,3 235,2 199,-2 214,-4 293,-30 z m -14,-165 c 3,-5 -36,-17 -87,-26 -194,-37 -453,-118 -902,-280 -374,-135 -503,-188 -706,-291 l -69,-34 v 41 40 l 103,48 c 390,182 1022,415 1267,466 164,35 383,55 394,36 z m 640,-230 c 61,-37 144,-87 184,-111 74,-43 93,-60 70,-60 -43,1 -413,238 -374,240 5,0 59,-31 120,-69 z m -131,-19 c 124,-95 195,-143 307,-207 97,-55 95,-53 88,-61 -9,-8 -140,59 -231,120 -76,50 -288,226 -272,226 4,0 53,-35 108,-78 z m -28,-83 c 121,-102 226,-177 330,-234 48,-26 84,-49 81,-52 -10,-11 -171,75 -256,135 -47,34 -130,105 -185,158 -112,108 -103,106 30,-7 z m -86,-27 c 190,-172 322,-271 425,-318 69,-32 68,-42 -2,-16 -68,26 -210,120 -312,207 -95,82 -219,205 -206,205 5,0 48,-35 95,-78 z m 216,-284 c 66,-47 135,-93 153,-102 19,-10 31,-20 28,-23 -8,-8 -110,51 -221,130 -100,71 -275,238 -307,293 -9,16 38,-25 105,-92 73,-71 171,-155 242,-206 z m -319,180 c 38,-50 41,-57 15,-33 -28,26 -76,95 -66,95 2,0 25,-28 51,-62 z m -62,-25 c 109,-176 160,-244 248,-329 95,-92 190,-163 243,-182 17,-6 23,-11 14,-11 -9,-1 -48,15 -88,35 -149,75 -324,280 -457,537 -27,51 -8,27 40,-50 z m -1104,22 c 234,-35 408,-121 566,-279 182,-182 269,-385 281,-651 6,-148 -13,-265 -62,-390 -96,-243 -291,-438 -552,-550 -139,-60 -190,-70 -373,-70 -198,0 -255,12 -415,90 -278,135 -461,356 -542,655 -22,81 -26,116 -26,235 0,120 4,154 27,238 78,289 272,520 540,642 187,85 360,110 556,80 z m 1316,-141 c 49,-42 133,-109 187,-150 95,-72 120,-101 41,-48 -103,70 -342,272 -323,274 4,0 47,-34 95,-76 z m -232,50 c 3,-8 2,-12 -4,-9 -6,3 -10,10 -10,16 0,14 7,11 14,-7 z m 401,-275 c 27,-21 77,-54 110,-74 33,-20 49,-34 35,-30 -78,22 -290,187 -380,296 -37,44 -24,35 70,-50 63,-57 137,-121 165,-142 z m -330,165 c 9,-15 12,-23 6,-20 -11,7 -35,46 -28,46 3,0 12,-12 22,-26 z m -44,-11 c 13,-16 12,-17 -3,-4 -10,7 -18,15 -18,17 0,8 8,3 21,-13 z m 305,-294 c 51,-38 108,-76 126,-84 18,-8 28,-14 21,-15 -29,-1 -123,51 -183,100 -78,64 -206,192 -238,238 -13,18 23,-13 79,-68 56,-56 144,-133 195,-171 z m -316,226 c 14,-19 14,-19 -2,-6 -10,7 -18,18 -18,24 0,6 1,8 3,6 1,-2 9,-13 17,-24 z m 169,-195 c 58,-58 141,-129 184,-157 84,-57 85,-72 2,-24 -95,55 -244,201 -316,311 -27,40 -27,41 -3,10 15,-19 75,-82 133,-140 z m 426,70 c 13,-6 15,-9 5,-9 -8,0 -22,4 -30,9 -18,12 -2,12 25,0 z m -258,-306 c 35,-20 66,-41 69,-46 7,-11 -63,17 -85,34 -74,57 -171,142 -171,150 0,5 28,-15 62,-46 34,-30 91,-72 125,-92 z m -2,-82 c -3,-3 -11,0 -18,7 -9,10 -8,11 6,5 10,-3 15,-9 12,-12 z m -3024,-627 21,-30 -27,30 c -15,17 -46,50 -69,75 -22,25 -47,54 -55,65 -7,11 14,-9 48,-45 34,-36 71,-78 82,-95 z m -71,-25 c 56,-73 235,-271 264,-292 6,-4 8,-10 4,-13 -8,-8 -205,204 -281,302 -34,45 -77,101 -96,125 l -34,43 40,-40 c 21,-22 68,-78 103,-125 z m 10,-120 c 51,-58 137,-153 192,-212 55,-60 96,-108 92,-108 -35,0 -494,532 -494,572 0,5 27,-26 59,-69 33,-43 101,-125 151,-183 z m 124,154 c 3,-8 2,-12 -4,-9 -6,3 -10,10 -10,16 0,14 7,11 14,-7 z M 548,1726 c 81,-87 188,-194 237,-238 167,-149 180,-161 165,-153 -21,13 -164,129 -235,192 -78,70 -266,272 -316,339 -40,55 -54,88 -18,44 11,-14 87,-96 167,-184 z m 280,-5 c 43,-51 85,-105 95,-120 l 19,-26 -24,26 c -58,66 -176,208 -201,244 l -28,40 31,-35 c 18,-19 66,-77 108,-129 z m -38,129 c 6,-11 8,-20 6,-20 -3,0 -10,9 -16,20 -6,11 -8,20 -6,20 3,0 10,-9 16,-20 z m 2546,-47 c -5,-24 6,-41 79,-123 47,-52 85,-99 84,-105 0,-15 -169,165 -169,181 0,8 -4,14 -10,14 -11,0 -14,43 -3,53 15,15 24,5 19,-20 z m 193,-74 c 45,-51 81,-99 81,-107 0,-8 -2,-13 -3,-11 -2,2 -37,42 -78,89 -96,111 -103,120 -91,120 5,0 46,-41 91,-91 z M 759,1408 c 150,-122 170,-141 126,-113 -137,84 -304,229 -442,384 -138,154 -115,147 38,-12 78,-82 203,-198 278,-259 z m 2598,250 c 39,-40 119,-117 177,-171 112,-104 165,-169 87,-108 -73,58 -313,295 -337,333 -24,38 -30,68 -16,82 4,4 9,-8 12,-28 4,-27 22,-52 77,-108 z m -123,76 c 0,-18 11,-42 30,-64 58,-68 303,-307 349,-340 69,-49 49,-49 -25,1 -70,47 -299,273 -347,343 -31,45 -42,102 -18,93 6,-2 12,-17 11,-33 z m -104,-54 c 0,-20 -5,-30 -15,-30 -15,0 -21,40 -8,53 14,15 23,6 23,-23 z M 655,1379 c 71,-58 125,-97 204,-150 25,-16 40,-29 35,-29 -15,0 -146,83 -231,147 -86,64 -312,284 -333,323 -7,14 47,-33 121,-105 74,-71 166,-155 204,-186 z m 2415,277 c 0,-14 -4,-27 -9,-31 -12,-7 -25,31 -16,45 11,18 25,10 25,-14 z m -52,-28 c -4,-27 -28,-36 -28,-10 0,20 8,32 22,32 5,0 8,-10 6,-22 z m 267,-142 c 100,-110 88,-117 -16,-9 -94,98 -129,141 -129,161 0,12 9,6 28,-18 15,-19 67,-80 117,-134 z m -316,97 c 0,-35 -1,-36 -10,-14 -5,14 -7,31 -5,38 10,24 16,13 15,-24 z m 51,-25 c 0,-7 16,-33 35,-57 19,-24 35,-46 35,-49 0,-12 -62,54 -76,80 -17,32 -17,38 -4,38 6,0 10,-6 10,-12 z M 420,1459 c 133,-122 204,-175 426,-316 16,-11 15,-11 -8,-3 -88,30 -244,132 -378,245 -78,66 -160,153 -160,170 0,11 24,-8 120,-96 z m 515,12 c -3,-2 -6,-2 -7,0 -2,2 -21,24 -43,49 l -40,45 47,-44 c 26,-25 45,-47 43,-50 z m 46,72 c 13,-16 12,-17 -3,-4 -10,7 -18,15 -18,17 0,8 8,3 21,-13 z m 1865,-28 c -4,-16 0,-35 11,-53 l 17,-27 -21,18 c -34,29 -41,87 -11,87 6,0 8,-10 4,-25 z m -43,-28 c -5,-24 10,-41 77,-90 15,-11 8,-9 -19,5 -50,26 -95,86 -79,105 15,18 26,7 21,-20 z m -43,-26 c 0,-24 8,-34 45,-55 59,-35 57,-40 -4,-13 -27,12 -47,24 -45,26 2,2 -3,16 -11,32 -19,35 -19,39 0,39 10,0 15,-10 15,-29 z M 380,1350 c 125,-106 221,-172 355,-242 118,-61 125,-73 22,-34 -78,29 -185,89 -263,147 -63,46 -204,173 -217,195 -18,30 14,10 103,-66 z m 611,63 c 13,-16 12,-17 -3,-4 -10,7 -18,15 -18,17 0,8 8,3 21,-13 z m 1637,4 c -1,-2 3,-11 11,-20 8,-10 9,-17 3,-17 -6,0 -14,5 -17,10 -3,6 -17,7 -31,4 -33,-8 -31,10 4,22 26,10 37,10 30,1 z m 272,-62 c 14,-8 21,-14 15,-14 -5,0 -21,6 -35,14 -14,8 -20,14 -15,14 6,0 21,-6 35,-14 z m -210,-22 25,-14 -25,7 c -14,4 -41,13 -60,20 l -35,14 35,-6 c 19,-4 46,-13 60,-21 z m 40,17 c 8,-5 11,-10 5,-10 -5,0 -17,5 -25,10 -8,5 -10,10 -5,10 6,0 17,-5 25,-10 z m 305,-75 60,-55 -67,47 c -61,44 -80,63 -60,63 4,0 34,-25 67,-55 z m -237,5 c 45,-27 40,-34 -5,-8 -47,27 -49,28 -37,28 5,0 24,-9 42,-20 z m 80,-16 c 31,-20 74,-52 95,-71 22,-19 77,-59 123,-89 91,-58 114,-83 37,-39 -59,34 -99,64 -180,132 -34,29 -81,62 -103,73 -36,18 -49,30 -35,30 3,0 32,-16 63,-36 z m -763,-24 c 4,-6 62,-11 138,-11 73,-1 145,-4 161,-8 15,-3 -75,-6 -200,-7 -167,-1 -217,1 -184,8 25,6 49,14 55,19 12,12 22,11 30,-1 z m 790,-41 20,-23 -32,23 c -38,26 -56,49 -27,33 11,-6 28,-20 39,-33 z m -933,2 c -18,-11 41,-20 143,-22 44,-1 93,-4 110,-8 16,-3 -66,-6 -182,-6 -134,0 -205,3 -195,9 41,23 158,49 124,27 z m 604,-21 c 90,-36 138,-60 132,-66 -3,-2 -20,4 -39,13 -19,9 -77,32 -129,49 -58,20 -85,33 -68,33 15,1 62,-13 104,-29 z m 134,-36 c 0,-2 -9,0 -20,6 -11,6 -20,13 -20,16 0,2 9,0 20,-6 11,-6 20,-13 20,-16 z m 255,8 c -3,-3 -11,0 -18,7 -9,10 -8,11 6,5 10,-3 15,-9 12,-12 z m -1165,-2 c 0,-5 -21,-10 -46,-10 -25,0 -43,-4 -39,-9 3,-5 -21,-13 -52,-17 -32,-4 -60,-10 -63,-13 -3,-4 -34,-12 -70,-20 -81,-16 -107,-36 -35,-28 39,5 46,4 31,-4 -10,-7 -37,-9 -62,-5 -24,3 -44,2 -44,-3 0,-9 -26,-15 -110,-25 -33,-4 -17,3 60,29 109,37 189,61 250,75 19,5 58,15 85,23 60,18 95,21 95,7 z m 348,-57 c -10,-2 -28,-2 -40,0 -13,2 -5,4 17,4 22,1 32,-1 23,-4 z m -388,-13 c -36,-4 -90,-7 -120,-7 h -55 l 55,7 c 30,4 84,7 120,7 h 65 z m 437,4 c -3,-3 -12,-4 -19,-1 -8,3 -5,6 6,6 11,1 17,-2 13,-5 z m -78,-30 c 41,-7 77,-16 80,-20 3,-3 -8,-3 -26,0 -17,4 -96,16 -175,26 -133,18 -136,19 -48,14 52,-3 128,-12 169,-20 z m -204,-35 c 41,-6 75,-15 75,-19 0,-5 -17,-3 -37,3 -24,7 -123,12 -258,12 -121,0 -200,3 -175,6 80,11 317,9 395,-2 z m -448,-15 c -3,-3 -12,-4 -19,-1 -8,3 -5,6 6,6 11,1 17,-2 13,-5 z m -350,-20 c -3,-3 -12,-4 -19,-1 -8,3 -5,6 6,6 11,1 17,-2 13,-5 z m 246,-1 c -7,-2 -19,-2 -25,0 -7,3 -2,5 12,5 14,0 19,-2 13,-5 z m -318,-14 c -22,-4 -58,-7 -80,-7 -39,1 -38,1 10,8 28,4 64,7 80,7 25,1 23,-1 -10,-8 z m 1125,-25 c 12,-12 8,-12 -25,2 -50,20 -59,29 -20,20 17,-4 37,-14 45,-22 z m -1257,9 c -7,-2 -21,-2 -30,0 -10,3 -4,5 12,5 17,0 24,-2 18,-5 z m 360,-20 c -7,-2 -19,-2 -25,0 -7,3 -2,5 12,5 14,0 19,-2 13,-5 z m -120,-20 c -7,-2 -21,-2 -30,0 -10,3 -4,5 12,5 17,0 24,-2 18,-5 z m -80,-10 c -7,-2 -19,-2 -25,0 -7,3 -2,5 12,5 14,0 19,-2 13,-5 z"
       id="path2"
       style="fill:#ffffff;fill-opacity:1" />
    <path
       d="m 3873,2268 -23,-24 v -542 c 0,-454 2,-542 14,-542 35,0 36,18 34,579 l -3,553 z"
       id="path3"
       style="fill:#ffffff;fill-opacity:1" />
    <path
       d="m 3775,2157 c -13,-20 -14,-93 -12,-544 l 2,-520 21,14 c 18,11 22,27 27,111 9,128 -4,962 -14,962 -5,0 -15,-10 -24,-23 z"
       id="path4"
       style="fill:#ffffff;fill-opacity:1" />
    <path
       d="m 3679,2063 c -21,-27 -21,-33 -15,-186 4,-87 13,-204 21,-260 16,-115 19,-297 4,-372 -5,-27 -12,-78 -15,-112 -6,-53 -4,-64 10,-69 36,-14 45,15 53,176 4,85 5,207 1,270 -3,63 -10,220 -14,348 -3,127 -10,232 -15,232 -4,0 -17,-12 -30,-27 z"
       id="path5"
       style="fill:#ffffff;fill-opacity:1" />
    <path
       d="m 1110,863 c -145,-4 -157,-8 -100,-35 42,-19 64,-21 325,-22 279,-1 280,-1 380,-31 61,-18 158,-59 250,-107 82,-42 221,-112 307,-155 148,-74 193,-104 131,-88 -44,11 -200,85 -303,144 -277,159 -402,206 -576,221 -118,9 -389,3 -413,-10 -11,-6 -7,-11 15,-23 22,-11 78,-16 239,-20 178,-3 221,-7 285,-26 83,-25 245,-99 360,-166 41,-24 116,-64 165,-89 84,-43 95,-46 166,-46 42,0 95,-7 119,-15 46,-16 88,-19 107,-7 13,8 -168,120 -462,284 -170,96 -261,130 -450,173 -117,26 -166,28 -545,18 z"
       id="path6"
       style="fill:#ffffff;fill-opacity:1" />
    <path
       d="m 1221,721 c -24,-6 -24,-7 15,-30 31,-18 62,-25 149,-32 61,-5 128,-11 150,-15 64,-10 259,-75 275,-91 13,-14 12,-15 -10,-9 -249,65 -337,85 -395,91 -62,6 -68,5 -56,-9 17,-20 212,-95 281,-107 115,-21 161,-47 72,-41 -27,2 -62,2 -78,0 -28,-3 -28,-4 26,-39 30,-19 133,-77 229,-129 l 173,-93 102,-1 c 94,-1 105,1 159,30 l 59,30 h -149 c -110,0 -166,5 -218,18 -89,23 -101,34 -28,25 32,-4 147,-8 256,-8 164,-1 203,2 229,15 29,15 30,17 13,27 -12,6 -82,10 -175,9 -118,-1 -193,4 -315,22 l -160,24 104,1 c 58,1 101,5 95,9 -5,5 -57,31 -116,58 -80,37 -100,50 -81,52 16,2 64,-18 135,-58 109,-60 111,-61 180,-58 l 70,3 -113,58 c -63,31 -159,82 -214,112 -170,94 -305,127 -555,138 -47,2 -96,1 -109,-2 z"
       id="path7"
       style="fill:#ffffff;fill-opacity:1" />
  </g>
</svg>
